<svg id="Layer_1" data-name="Layer 1" xmlns="http://www.w3.org/2000/svg" viewBox="0 0 720 720"><defs><style>.cls-1{fill:none;stroke:#231f20;stroke-miterlimit:10;stroke-width:7px;}</style></defs><title>Icons_NEST&amp;amp;LAUNCHLAB</title><rect class="cls-1" x="257.12" y="142.55" width="123.54" height="32.55" rx="4.72" ry="4.72" transform="translate(-25.77 248.97) rotate(-41.13)"/><rect class="cls-1" x="397.67" y="302.98" width="123.54" height="32.55" rx="4.72" ry="4.72" transform="translate(-96.61 381.02) rotate(-41.13)"/><path class="cls-1" d="M324.18,166.4H455.23a5.87,5.87,0,0,1,5.87,5.87V303.33a5.88,5.88,0,0,1-5.88,5.88H324.18a5.87,5.87,0,0,1-5.87-5.87V172.28a5.87,5.87,0,0,1,5.87-5.87Z" transform="translate(312.47 -212.15) rotate(48.87)"/><line class="cls-1" x1="307.81" y1="214.53" x2="295.33" y2="201.01"/><line class="cls-1" x1="412.67" y1="337.84" x2="400.19" y2="324.32"/><line class="cls-1" x1="479.34" y1="278.22" x2="466.85" y2="264.7"/><path class="cls-1" d="M322.29,269.16S97.61,455.38,62.43,477.23c-33.61,20.87,5.32,82.26,37.53,50,42.41-42.41,171.4-164.7,246.41-230.55"/><rect class="cls-1" x="346.37" y="536.44" width="284.11" height="32.55" rx="4.72" ry="4.72"/><rect class="cls-1" x="378.12" y="514.19" width="220.61" height="22.26"/><line class="cls-1" x1="373.09" y1="157.96" x2="360.61" y2="144.44"/></svg>