<svg xmlns="http://www.w3.org/2000/svg" viewBox="0 0 750 750"><defs><style>.cls-2{fill:#666}</style></defs><g id="Layer_2" data-name="Layer 2"><text transform="translate(37.2 427.1)" fill="#666" font-size="170.72" font-family="AvenirNext-Bold,Avenir Next" font-weight="700">GenecIs</text><path class="cls-2" d="M589.16 329.08c-1.82-10.65-1.13-18.8-5.45-31.95a45 45 0 0 0-6-12.8 57.87 57.87 0 0 0-7.3-8.43 69.4 69.4 0 0 0-7.68-6.48c-4.53-3.3-7.74-4.8-13.48-7.75-8.59-4.43-13.93-7.17-19.23-10.57a108.65 108.65 0 0 1-13.79-10.53c.13 3.41.75 16.33 4.9 27.17a89 89 0 0 0 3.77 8.33 57.91 57.91 0 0 0 5.75 9.44 56.49 56.49 0 0 0 3.81 4.42 59 59 0 0 0 11.32 9.17c10.51 6.6 17.4 7.36 25.5 12.11 4.88 2.87 11.61 8.02 17.88 17.87zM593.92 327.27a20.47 20.47 0 0 1 3.71-6.22c4.07-4.63 7.68-4.22 13.78-8.32a36 36 0 0 0 10.3-10.58c1.42-2.27 4.48-9.74 4.85-12.66a67.94 67.94 0 0 0-12.14 3.57c-2.26.93-4.13 1.91-4.34 2a45.37 45.37 0 0 0-4.66 2.8 29 29 0 0 0-7.3 7.17 28 28 0 0 0-4.62 10.66c-.72 3.58.28 7.73.42 11.58z"/></g></svg>