<svg id="Layer_1" data-name="Layer 1" xmlns="http://www.w3.org/2000/svg" viewBox="0 0 750 750"><defs><style>.cls-1{fill:#666;}.cls-2{fill:#b3b3b3;}</style></defs><title>Kepler</title><g id="z7MwX4.tif"><path class="cls-1" d="M222,442.56c-8.72-4.17-11.88-11.13-11.13-20.61.52-6.62,0-13.32.12-20,.11-9.34,6.16-16,15.48-16.09,18.66-.25,37.32,0,56-.13,5.25,0,2.83,3.7,3.28,6,.56,2.8-.29,4.12-3.63,4.09-18.66-.17-37.33,0-56-.18-4-.05-5.48.71-5.3,5.06.35,8.63.08,8.64,8.63,8.64,17.16,0,34.33.13,51.49-.1,4-.05,5.09,1,5,5-.11,3.58-.52,5.24-4.82,5.18-18.33-.27-36.66,0-55-.21-4-.05-5.49.62-5.29,5,.39,8.41.1,8.43,8.74,8.43,16.67,0,33.34.26,50-.15,5.45-.14,7,1.62,6.27,6.61a17,17,0,0,0,.19,3.47Z"/><path class="cls-1" d="M547,442.56c-8.87-3.63-12.31-10.33-11.78-19.73.38-6.81,0-13.66.1-20.48.22-10.19,6.49-16.47,16.67-16.54,18.16-.11,36.32.12,54.47-.12,5.12-.07,3.34,3.22,3.59,5.64.28,2.64.31,4.56-3.65,4.51-18.65-.25-37.31,0-56-.2-4-.05-5.48.8-5.32,5.1.33,8.58.07,8.59,8.76,8.59,17.32,0,34.65.18,52-.13,4.35-.07,4.39,1.84,4.27,5-.1,2.88.45,5.27-4.14,5.2-18.65-.29-37.3,0-56-.23-4.07-.05-5,1.22-4.88,5,.25,8.42.05,8.43,8.31,8.43,16.83,0,33.65.18,50.47-.12,4.79-.08,7.22.78,6.19,6.06a22.08,22.08,0,0,0-.11,4Z"/><path class="cls-1" d="M726,427.56c-.57-3.33-2-6.13-5.25-7.61,4.73-.18,4.2-4.47,5.59-7.17-.2-5.62-.37-10.34-.56-16-5.39-9.81-11.14-11.72-22-11a401.83,401.83,0,0,1-46.82-.09c-4.88-.27-5.8,1-5.77,5,.11,16.12,0,32.24-.12,48.36l9.71,3.82c2.72-3.16,1.79-6.94,1.76-10.47,0-3.9,1.52-5.43,5.55-5.34q20.46.46,40.92,0c4-.09,6.07,1.44,6,5.34,0,3.4,0,4.8,0,10.13,2.33,0,5.69-.19,8,.05,2.53.27,3.23-.53,3.07-3.05C725.82,435.57,726,431.56,726,427.56Zm-9.87-28.3a124.88,124.88,0,0,0,0,13c.13,2.71-.85,3.32-3.41,3.3q-24-.17-47.94,0c-2.73,0-3.9-.57-3.73-3.55a124.69,124.69,0,0,0,0-13c-.12-2.72.92-3.38,3.46-3.34,8,.13,16,.05,24,.05s16,.11,24-.07C715.27,395.6,716.28,396.37,716.13,399.26Z"/><path class="cls-1" d="M402.78,403.1c-.09-11-6.3-17.27-17.44-17.3-17.66-.06-35.33.08-53-.1-3.46,0-4.47.82-4.44,4.37.19,17.5.09,35,.09,52.49h10c0-4.17.19-8.35-.14-12.49-.29-3.6.61-4.8,4.52-4.73,14.66.27,29.33.2,44,.07,9.88-.09,16.17-6.49,16.4-16.31C402.82,407.1,402.79,405.1,402.78,403.1ZM389.5,415.54c-8-.14-16-.05-24-.05s-16-.1-24,.06c-2.71.05-3.85-.58-3.69-3.53.24-4.48.14-9,0-13.48-.06-2.15.68-2.86,2.86-2.85,16.31.07,32.63.1,48.94,0,2.83,0,3.3,1.16,3.22,3.57-.14,4.32-.19,8.66,0,13C393.07,414.93,392,415.58,389.5,415.54Z"/><path class="cls-1" d="M26,356.56q16.62,9.49,33.25,19c1.48.85,2.7,1.63,2.68,3.72-.08,12.24,0,24.49,0,37.54L26,396.56Z"/><path class="cls-2" d="M64.55,332.94c9.5,6.56,19.64,11.73,29.73,17.69,1.24.73,3.72.93,3.32,2.63s-2.06,1.9-3.29,2.62c-8,4.7-16.19,9.16-24.06,14.09-4,2.49-7.18,2.74-11.3.16-8.72-5.44-17.75-10.41-26.71-15.46-2.77-1.56-3.57-2.44-.1-4.33,8.15-4.45,16.12-9.24,24.15-13.92,1.72-1,2.71-1.86,5.08-3.19C63,332.56,63,332.56,64.55,332.94Z"/><path class="cls-1" d="M158,442.56c-11.19-5.8-22.35-11.65-33.58-17.37-4.71-2.4-8.45-5.37-8.43-11.22s3.81-8.82,8.53-11.16c7-3.46,15.55-7.78,22.48-11.25,12-6,19.26-6.55,31.82-5.37L125,413.56a12.31,12.31,0,0,0,4,3c15.22,7.79,30.34,15.37,45.56,23.17,1.54.79,3.47,1.1,4.44,2.83Z"/><path class="cls-1" d="M453,442.56c-8.86-3.61-12.16-10.29-11.8-19.67.41-11,.32-21.95,0-32.92-.13-4.4,2.11-4.16,5.16-4.27,3.34-.12,5,.26,4.94,4.42-.31,12.79,0,25.6-.18,38.4-.05,3.2.75,4.24,4.09,4.19,13.3-.2,26.61.15,39.9-.2,4.85-.13,7.18.88,6.17,6.09a29,29,0,0,0-.26,4Z"/><path class="cls-1" d="M104,442.56c-.06-17.76,0-35.53-.27-53.29-.06-4.19,2.33-3.57,4.76-3.48s5.36-1.14,5.3,3.5c-.2,16.77.21,33.5.21,50.27v3Z"/></g></svg>