<?xml version="1.0" encoding="utf-8"?>
<!-- Generator: Adobe Illustrator 22.0.0, SVG Export Plug-In . SVG Version: 6.00 Build 0)  -->
<svg version="1.1" xmlns="http://www.w3.org/2000/svg" xmlns:xlink="http://www.w3.org/1999/xlink" x="0px" y="0px"
	 viewBox="0 0 1080 1080" enable-background="new 0 0 1080 1080" xml:space="preserve">
<g id="Trail">
	<g>
		<g>
			<g enable-background="new    ">
				<defs>
					<rect id="SVGID_1_" x="79.4" y="319" enable-background="new    " width="925.8" height="438"/>
				</defs>
				<clipPath id="SVGID_2_">
					<use xlink:href="#SVGID_1_"  overflow="visible"/>
				</clipPath>
				<g clip-path="url(#SVGID_2_)">
					<g>
						<g>
							<g>
								<path fill="#192946" d="M911,390.3c-0.9,0-1.7-0.1-2.6-0.2c-3.2-0.5-6-2-8-4.3c-4.4-5.1-2.6-10.3,5-14.4
									c10.7-5.8,16.1-8.7,17.3-13.1c1.2-4.4-2.2-8.6-9-17c-4.4-5.4-3.2-10.9,3-14c2.5-1.3,5.1-1.9,7.5-1.9c0.6,0,1.2,0,1.8,0.1
									c3.4,0.4,6.7,2.1,9.4,5c7.4,7.6,11.1,11.4,17,12.3c0.8,0.1,1.6,0.2,2.4,0.2c5.1,0,10.4-2.4,19.7-6.7
									c3.1-1.4,6.3-2.1,9.3-2.1c2,0,3.8,0.3,5.5,0.9c4.3,1.6,6.9,5.1,7.1,9.5c-0.2,3.5-4.3,6.4-10.8,9.8c-2.7,1.4-5,2.6-6.9,3.5
									c-5.2,2.5-8.6,4.2-8.8,7.4c-0.2,2.7,2,5,6.8,10.2c0.9,1,1.9,2.1,3.1,3.3c0.4,0.4,0.8,0.8,1.1,1.2c0.9,0.9,1.7,1.8,2.4,2.7
									c4.6,6,3.4,11.5-3.4,14.8c-2.1,1-4.4,1.5-6.6,1.5c-4.1,0-8.3-1.7-11.8-4.9c-1.5-1.4-2.7-3.2-4-5.2
									c-2.9-4.3-6.4-9.6-14.4-10.3c-0.5,0-1-0.1-1.5-0.1c-6.2,0-11.3,3.3-15.8,6.2c-2.1,1.4-4.1,2.7-6.1,3.6
									C916.6,389.6,913.7,390.3,911,390.3 M924.1,319c-4.3,0-8.7,1-12.7,3.1c-10,5-12.3,14.2-5.6,22.4c5.3,6.6,8.6,10.5,8,12.6
									c-0.6,2.1-5.6,4.8-13.9,9.2c-11.2,6-14,15-7.2,22.8c3.3,3.8,8.1,6.3,13.7,7.2c1.5,0.2,3,0.4,4.5,0.4c4.5,0,9.1-1,13.3-3
									c2.6-1.2,5-2.7,7.3-4.2c3.4-2.2,7-4.5,9.7-4.5c0.1,0,0.3,0,0.4,0c2.9,0.2,4.8,2.8,7.4,6.7c1.5,2.2,3,4.4,5,6.3
									c5.2,4.8,12.1,7.4,18.9,7.4c4,0,8-0.9,11.7-2.6c10.7-5.1,13.1-14.2,6.2-23.1c-0.9-1.1-1.8-2.2-2.8-3.2
									c-0.4-0.4-0.7-0.8-1.1-1.2c-1.1-1.3-2.2-2.4-3.1-3.4c-2.5-2.7-4.9-5.3-5.3-6.3c0.7-0.5,2.9-1.6,4.9-2.6
									c1.9-0.9,4.4-2.1,7.2-3.6c6.8-3.6,14-8,14.4-14.8c0-0.1,0-0.1,0-0.2c-0.3-6.9-4.6-12.4-11.9-15.1c-3-1.1-6.3-1.6-9.7-1.6
									c-4.7,0-9.7,1.1-14.2,3.1c-7.1,3.3-12.3,5.7-14.9,5.7c-0.2,0-0.3,0-0.5,0c-2.3-0.4-6.2-4.3-11.4-9.7
									c-4.1-4.2-9.4-6.9-15.2-7.6C926.3,319.1,925.2,319,924.1,319"/>
								<path fill="#192946" d="M159.5,672.2c-2.1,2.8-3.8,5.1-5,6.7c2.8,0.8,5.4,1.8,7.9,3c1.2-1.6,2.9-3.9,5-6.7L159.5,672.2"/>
								<path fill="#192946" d="M749.5,644.8c-5.7,1.8-11.1,2.7-16.5,2.7c-1.3,0-2.7-0.1-4-0.2c-2.1-0.2-4.1-0.4-6.2-0.7l-1.6,6.3
									c2.2,0.3,4.4,0.5,6.7,0.7c1.7,0.2,3.4,0.2,5.1,0.2c6.8,0,13.5-1.2,20.1-3.2L749.5,644.8 M189.2,635
									c-5.6,6.7-10.7,12.9-15.1,18.5l7.8,3.1c4.4-5.5,9.5-11.7,15-18.4L189.2,635 M671.2,629.2l-5.6,5c8.3,4.6,16.9,8.6,26.1,11.7
									l4-5.7C687.2,637.3,679,633.6,671.2,629.2 M792.3,617.8c-6.5,5.9-13.1,11.2-19.6,15.5l6.2,4.6c6.9-4.6,13.8-10.1,20.5-16.2
									L792.3,617.8 M630.2,599.2l-7.1,3.9c6.4,5.7,13,11.2,19.9,16.3l6.5-4.4C642.9,610.2,636.5,604.9,630.2,599.2 M221.1,598.7
									c-5.7,6.2-11.1,12.2-16.2,18l7.6,3.4c5.1-5.8,10.5-11.8,16.1-17.9L221.1,598.7 M824.8,582.5c-5.1,6.3-10.2,12.4-15.4,18.1
									l7.6,3.4c5.3-5.8,10.5-12,15.7-18.4L824.8,582.5 M595.4,564.8l-7.5,3.5c5.6,5.9,11.3,11.9,17.1,17.6l7.4-3.7
									C606.6,576.6,601,570.7,595.4,564.8 M255.3,563.4c-6,5.8-11.8,11.7-17.4,17.5l7.4,3.6c5.6-5.8,11.4-11.6,17.3-17.3
									L255.3,563.4 M852.2,544.8c-4.3,6.5-8.7,12.8-13.2,19l8,2.9c4.5-6.3,9-12.7,13.3-19.2L852.2,544.8 M292.6,529.7
									c-6.5,5.4-12.9,11-19.1,16.6l7.1,3.9c6.2-5.6,12.5-11.1,18.9-16.4L292.6,529.7 M561.6,529.4l-7.4,3.7
									c5.7,5.7,11.3,11.6,17,17.5l7.5-3.5C573,541.1,567.3,535.2,561.6,529.4 M876.5,506c-3.8,6.5-7.7,13-11.8,19.5l8.2,2.6
									c4.1-6.6,8.1-13.1,11.9-19.7L876.5,506 M334.4,498.5c-7.3,4.7-14.5,9.8-21.6,15.2l6.5,4.4c7-5.3,14.1-10.2,21.1-14.8
									L334.4,498.5 M523.5,495.9l-6.5,4.4c6.6,4.9,13.1,10.2,19.4,15.9l7.1-4C537,506.4,530.4,501,523.5,495.9 M383.7,472.9
									c-8.6,3.2-17.3,7.2-25.9,11.8l5.4,5.1c8.3-4.4,16.6-8.2,24.7-11.2L383.7,472.9 M474.1,470l-3.7,5.8
									c8.6,2.7,16.8,6.3,24.8,10.6l5.5-5.1C492.3,476.8,483.5,472.9,474.1,470 M898.6,466.4c-3.4,6.4-7,13.1-10.8,19.8l8.4,2.3
									c3.8-6.8,7.4-13.5,10.8-19.9L898.6,466.4 M431.1,463.4h-0.2c-6,0-12.1,0.5-18.2,1.5l2,6.2c5.5-0.9,10.9-1.3,16.2-1.4h0.2
									c4.1,0,8,0.2,11.9,0.5l1.1-6.3C439.9,463.6,435.5,463.4,431.1,463.4 M918.8,426.4c-2.9,6-6.2,12.8-9.9,20.1l8.5,2.1
									c3.7-7.3,7-14.1,10-20.2L918.8,426.4"/>
								<path fill="#192946" d="M932.7,396.3c0,0-1.6,3.7-4.5,10.1l8.6,2c2.9-6.4,4.5-10.1,4.5-10.2L932.7,396.3"/>
								<path fill="#192946" d="M133.9,750.6c-25.1,0-45.5-15.3-45.5-34.2c0-18.8,20.4-34.2,45.5-34.2c25.1,0,45.5,15.3,45.5,34.2
									C179.5,735.3,159,750.6,133.9,750.6 M133.9,675.9c-30.1,0-54.5,18.2-54.5,40.5c0,22.4,24.5,40.5,54.5,40.5
									s54.5-18.2,54.5-40.5c0-14.6-10.4-27.4-26-34.5c-2.5-1.2-5.2-2.2-7.9-3C148.2,677,141.2,675.9,133.9,675.9"/>
							</g>
						</g>
					</g>
				</g>
			</g>
		</g>
	</g>
</g>
<g id="Map">
	<g>
		<g>
			<g enable-background="new    ">
				<defs>
					<rect id="SVGID_3_" x="15.4" y="217.1" enable-background="new    " width="1049.1" height="639.9"/>
				</defs>
				<clipPath id="SVGID_4_">
					<use xlink:href="#SVGID_3_"  overflow="visible"/>
				</clipPath>
				<g clip-path="url(#SVGID_4_)">
					<g>
						<g>
							<g>
								<path fill="#192946" d="M292.8,849.2L26.6,802.5l39.1-575.9l248.5,67.8c0.6,0.2,1.3,0.3,2,0.3c0.4,0,0.7,0,1.1-0.1
									l218.2-30.4l240.4,47.4c0.5,0.1,1,0.1,1.5,0.1c0.9,0,1.8-0.2,2.6-0.5l224.1-83.9l49.2,575.3L802,849.2l-265.3-37.6
									c-0.4-0.1-0.7-0.1-1.1-0.1c-0.4,0-0.8,0-1.2,0.1L292.8,849.2 M1009,217.1c-0.9,0-1.8,0.1-2.6,0.4l-229.7,86.1l-239.6-47.2
									c-0.5-0.1-1-0.1-1.5-0.1c-0.4,0-0.7,0-1.1,0.1l-217.9,30.4L62.6,217.4c-0.6-0.2-1.3-0.3-2-0.3c-1.1,0-2.1,0.2-3,0.6
									c-1.5,0.7-2.4,1.8-2.5,3.1L15.4,805.3c-0.1,1.9,1.6,3.5,4.2,4l271.8,47.6c0.4,0.1,0.9,0.1,1.3,0.1c0.4,0,0.8,0,1.2-0.1
									l241.8-37.7L801.1,857c0.4,0.1,0.7,0.1,1.1,0.1c0.5,0,0.9,0,1.4-0.1l256.9-47.6c2.5-0.5,4.2-2.1,4.1-4l-50-584.5
									c-0.1-1.3-1.2-2.5-2.8-3.2C1010.9,217.3,1010,217.1,1009,217.1"/>
							</g>
						</g>
					</g>
				</g>
			</g>
		</g>
	</g>
	<g>
		<g>
			<g enable-background="new    ">
				<defs>
					<rect id="SVGID_5_" x="288" y="292.7" enable-background="new    " width="33" height="562.6"/>
				</defs>
				<clipPath id="SVGID_6_">
					<use xlink:href="#SVGID_5_"  overflow="visible"/>
				</clipPath>
				<g clip-path="url(#SVGID_6_)">
					<g>
						<g>
							<g>
								<polyline fill="#192946" points="311.4,292.7 288,855.1 297.5,855.3 320.9,292.9 311.4,292.7 								"/>
							</g>
						</g>
					</g>
				</g>
			</g>
		</g>
	</g>
	<g>
		<g>
			<g enable-background="new    ">
				<defs>
					<rect id="SVGID_7_" x="530.9" y="260.4" enable-background="new    " width="9.5" height="555.2"/>
				</defs>
				<clipPath id="SVGID_8_">
					<use xlink:href="#SVGID_7_"  overflow="visible"/>
				</clipPath>
				<g clip-path="url(#SVGID_8_)">
					<g>
						<g>
							<g>
								<polyline fill="#192946" points="540.4,260.4 530.9,260.4 530.9,815.6 540.4,815.6 540.4,260.4 								"/>
							</g>
						</g>
					</g>
				</g>
			</g>
		</g>
	</g>
	<g>
		<g>
			<g enable-background="new    ">
				<defs>
					<rect id="SVGID_9_" x="772.6" y="309.1" enable-background="new    " width="34.3" height="545.6"/>
				</defs>
				<clipPath id="SVGID_10_">
					<use xlink:href="#SVGID_9_"  overflow="visible"/>
				</clipPath>
				<g clip-path="url(#SVGID_10_)">
					<g>
						<g>
							<g>
								<polyline fill="#192946" points="782.1,309.1 772.6,309.3 797.5,854.7 807,854.5 782.1,309.1 								"/>
							</g>
						</g>
					</g>
				</g>
			</g>
		</g>
	</g>
</g>
<g id="Pins">
	<g opacity="0.5">
		<g>
			<g enable-background="new    ">
				<defs>
					<rect id="SVGID_11_" x="396.2" y="417.9" enable-background="new    " width="88.3" height="56.7"/>
				</defs>
				<clipPath id="SVGID_12_">
					<use xlink:href="#SVGID_11_"  overflow="visible"/>
				</clipPath>
				<g clip-path="url(#SVGID_12_)">
					<g>
						<g>
							<g>
								<path d="M411.4,469.9c-2.9,0-4.7-0.1-4.8-0.1c-0.3,0-1.2-0.5-1.3-1.1c-0.1-0.3-5.1-26.7,13.9-39.7c6.1-4.1,14.2-6.5,23-6.6
									c0.3,0,0.6,0,0.8,0c8.3,0,16.2,2,22.4,5.7c13.6,8.2,14.3,21.9,1.4,30.5C452,468.9,422.8,469.9,411.4,469.9 M443.2,417.9
									c-0.4,0-0.8,0-1.2,0c-11.3,0.2-21.7,3.1-29.4,8.3c-21.3,14.4-16,41.9-15.8,43.1c0.5,2.7,4.5,5,9.1,5.2
									c0.4,0,2.6,0.1,5.9,0.1c13.1,0,44.5-1.3,61.6-12.9c15.3-10.4,14.5-26.8-1.8-36.6C464,420.4,453.9,417.9,443.2,417.9"/>
								<path d="M443,453.6c-3.6,0-7-0.9-9.6-2.5c-6.1-3.6-6.4-10-0.6-13.9c2.7-1.8,6.2-2.8,10-2.9c0.1,0,0.2,0,0.4,0
									c3.6,0,7,0.9,9.7,2.5c6.1,3.6,6.4,10,0.6,13.9c-2.7,1.8-6.2,2.8-10,2.9C443.3,453.6,443.2,453.6,443,453.6 M443.1,429.7
									c-0.2,0-0.4,0-0.6,0c-6.3,0.1-12.1,1.7-16.4,4.6c-8.3,5.6-7.9,14.6,1,19.9c4.3,2.6,10,4,16,4c0.2,0,0.4,0,0.6,0
									c6.3-0.1,12.1-1.7,16.4-4.6c8.3-5.6,7.9-14.6-1-19.9C454.8,431.1,449.1,429.7,443.1,429.7"/>
							</g>
						</g>
					</g>
				</g>
			</g>
		</g>
	</g>
	<g>
		<path fill="#FFFFFF" stroke="#192946" stroke-width="8.5" stroke-miterlimit="10" d="M437.7,404.8c0,34.9-39.5,67.2-39.5,67.2
			c-2.3,1.9-6.1,1.9-8.4,0c0,0-39.5-32.3-39.5-67.2c0-24.1,19.5-43.6,43.7-43.6S437.7,380.7,437.7,404.8z"/>
		<path fill="#FFFFFF" stroke="#192946" stroke-width="8.5" stroke-miterlimit="10" d="M394,426.7c-12.1,0-22-9.8-22-21.9
			c0-12.1,9.9-21.9,22-21.9s22,9.8,22,21.9C416,416.9,406.1,426.7,394,426.7z"/>
	</g>
	<g>
		<g opacity="0.5">
			<g>
				<g enable-background="new    ">
					<defs>
						<rect id="SVGID_13_" x="771.8" y="588.1" enable-background="new    " width="92.8" height="56.7"/>
					</defs>
					<clipPath id="SVGID_14_">
						<use xlink:href="#SVGID_13_"  overflow="visible"/>
					</clipPath>
					<g clip-path="url(#SVGID_14_)">
						<g>
							<g>
								<g>
									<path d="M787.6,640.2c-3.1,0-5-0.1-5.1-0.1c-0.5,0-1.5-0.5-1.6-1.1c-0.1-0.3-5.5-26.7,14.7-39.6c6.4-4.1,15.1-6.5,24.5-6.6
										c0.3,0,0.6,0,1,0c8.9,0,17.3,2,23.9,5.7c14.3,8.1,15,21.8,1.5,30.5C830.6,639.1,799.7,640.2,787.6,640.2 M821.1,588.1
										c-0.4,0-0.8,0-1.3,0c-11.8,0.2-22.7,3.1-30.7,8.3c-22.5,14.4-16.9,42-16.7,43.1c0.6,2.7,4.7,5,9.4,5.2
										c0.4,0,2.7,0.1,6.2,0.1c13.8,0,46.7-1.3,64.8-12.9c16.2-10.4,15.4-26.9-1.9-36.7C842.9,590.6,832.3,588.1,821.1,588.1"/>
									<path d="M821.1,623.8c-3.9,0-7.6-0.9-10.5-2.5c-6.5-3.7-6.8-9.9-0.7-13.8c2.8-1.8,6.7-2.9,10.8-2.9c0.1,0,0.3,0,0.4,0
										c3.9,0,7.6,0.9,10.5,2.5c6.5,3.7,6.8,9.9,0.7,13.8c-2.9,1.8-6.7,2.9-10.8,2.9C821.3,623.8,821.2,623.8,821.1,623.8
										 M821.1,599.9c-0.2,0-0.5,0-0.7,0c-6.5,0.1-12.6,1.7-17,4.6c-8.8,5.7-8.4,14.6,1,20c4.5,2.6,10.4,4,16.6,4
										c0.2,0,0.5,0,0.7,0c6.5-0.1,12.6-1.7,17-4.6c8.9-5.7,8.4-14.6-1-20C833.2,601.3,827.3,599.9,821.1,599.9"/>
								</g>
							</g>
						</g>
					</g>
				</g>
			</g>
		</g>
		<g>
			<path fill="#FFFFFF" stroke="#192946" stroke-width="8.5" stroke-miterlimit="10" d="M815.3,572.4c0,34.9-40.1,67.2-40.1,67.2
				c-2.3,1.9-6.2,1.9-8.5,0c0,0-40.1-32.3-40.1-67.2c0-24.1,19.9-43.6,44.3-43.6S815.3,548.3,815.3,572.4z"/>
			<path fill="#FFFFFF" stroke="#192946" stroke-width="8.5" stroke-miterlimit="10" d="M771,594.3c-12.3,0-22.3-9.8-22.3-21.9
				s10-21.9,22.3-21.9s22.3,9.8,22.3,21.9C793.3,584.5,783.3,594.3,771,594.3z"/>
		</g>
	</g>
</g>
</svg>
