<svg id="Layer_1" data-name="Layer 1" xmlns="http://www.w3.org/2000/svg" viewBox="0 0 750 750"><defs><style>.cls-1{font-size:120.8px;fill:#666;stroke:gray;stroke-miterlimit:10;font-family:MyriadPro-Regular, Myriad Pro;}.cls-2{letter-spacing:0.01em;}.cls-3{letter-spacing:0.02em;}.cls-4{fill:#ccc;}.cls-5{fill:#999;}.cls-6{fill:#8e8e8e;}</style></defs><title>StartUpLogos</title><text class="cls-1" transform="translate(192.45 435.11)"><tspan class="cls-2">M</tspan><tspan x="97.84" y="0">edCha</tspan><tspan class="cls-3" x="421.81" y="0">r</tspan><tspan x="464.21" y="0">t</tspan></text><path class="cls-4" d="M69,381.09l-18.92-.54s-7.95.62-3.51-4.92,30.06-36.92,30.06-36.92S80,333.4,89.5,332.25s30.74-5.89,30.74-5.89,9.2-1.17,6,4.78S99,375.09,99,375.09s-4,6-10,6Z"/><path class="cls-5" d="M68.48,381.59H89s5.5,1,9.5-5S120,343.21,120,343.21l28-6.28s14.5-2.08,9.55,6.29-34.95,56.37-34.95,56.37-5,9-15,9-50-1.62-50-1.62-7,.4-4.52-5S68.48,381.59,68.48,381.59Z"/><path class="cls-6" d="M149.81,356.9,123,400.09s-4,9-16,9-28.47-.5-28.47-.5l-11.72,14.7s-4.2,5.62,1,5.71,58.19.09,58.19.09,8.07,1,11-2.48,12.78-18,12.78-18l32.75-52.12s2.7-6.44-3.43-5.41S149.81,356.9,149.81,356.9Z"/></svg>