<svg xmlns="http://www.w3.org/2000/svg" viewBox="0 0 750 750"><g id="Layer_2" data-name="Layer 2"><g id="layer1"><path id="path4296" d="M368 521.18v-7.27h28.38v14.54H368zm42.61.38a55 55 0 0 1-.26-7.31c.55-.55 27.72-1.33 28-.81a51.47 51.47 0 0 1 .73 7.44l.38 6.88h-10c-5.52 0-11.91.19-14.19.43l-4.16.44zM337.52 527l-10.52-.54c-1.07-.08-1.21-.91-1.21-7.12v-7l12.58.48c6.93.26 13.31.65 14.19.87 1.55.39 1.61.67 1.61 7.25v6.85l-3.63-.12c-2.04-.1-7.88-.37-13.02-.67zm116-1.43a60 60 0 0 1-.58-7l-.26-6 2.12-.33c2.57-.38 25.55-1.76 25.78-1.53s1.42 13.29 1.21 13.66c-.15.23-4.09.63-8.76.88s-10.91.64-13.85.88c-4.18.33-5.42.22-5.67-.53zM305 525.23l-11.07-1c-12.26-1.06-11.33-.45-10.76-7 .73-8.33-.16-7.73 10.7-7.23 5.17.24 11.35.64 13.73.89l4.33.46v2.5c0 1.37-.2 4.6-.44 7.17-.49 5.18.05 4.83-6.47 4.22zm191.38-2.44c-.58-1.54-1.47-12.31-1.06-13s26.93-3.85 27.42-3.35a57 57 0 0 1 1 6.73c.5 4.43.51 6.63 0 6.93a124.76 124.76 0 0 1-12.65 1.66c-6.57.68-12.49 1.38-13.16 1.57a1.28 1.28 0 0 1-1.56-.57zm-243.8-2.95c-6.18-.84-11.46-1.74-11.73-2-.46-.45.79-12.76 1.35-13.32.14-.14 6.31.52 13.71 1.46s13.53 1.72 13.62 1.72c.44 0 .1 5.51-.59 9.47-.94 5.18.46 4.96-16.38 2.67zm286.52-2c-.6-.72-2.32-12.23-1.91-12.78.24-.33 17.31-2.93 22.09-3.37 3-.27 5.27-.19 5.5.19.71 1.15 1.88 12.25 1.34 12.74-.28.26-5.34 1.14-11.24 2s-11.7 1.64-12.88 1.82a3.31 3.31 0 0 1-2.9-.55zm-326.85-4l-10.4-1.84c-2.65-.48-3.14-.82-3.32-2.33-.21-1.77 1.6-11.59 2.25-12.24.2-.19 6.45.82 13.9 2.25l13.55 2.61-.34 1.82c-.19 1-.53 3.38-.77 5.29-.72 5.84-.76 5.89-4.38 5.81a96.69 96.69 0 0 1-10.51-1.37zm-132.37-1.37c-8.74-1-18.66-8.72-23.27-18.17a86.78 86.78 0 0 1-7.27-22.14l-.9-5.66-1.18 2.24c-1.37 2.62-5.64 5-8.92 5a10.15 10.15 0 0 1-8.31-4.9c-1.66-3-1.28-8.33.9-12.85 2-4.18 7.64-9.82 12.76-12.8l4.15-2.42.5-7.22C50.11 407.82 56 385.51 65 370.31c5.25-8.86 14.4-18 21.4-21.46 16.48-8.05 32.65-2.8 40 13 3.93 8.39 5.1 15.25 4.65 27.1-.37 9.93-1 14-3.33 21.74-3.23 10.75-10.3 20.08-19 25.06-4.13 2.37-4.21 2.38-12.81 2.38-8 0-8.9-.13-12.14-1.84S76 430.39 72.52 426c-.75-.95-1.51-1.58-1.68-1.38a47.52 47.52 0 0 0-.69 7l-.38 6.67 5 1.19c12.94 3.09 24.52 13.42 30.66 27.35 1.93 4.39 2 4.79 2 16.61v12.11l-2.43 4.37a21.64 21.64 0 0 1-10.9 10.33 26.13 26.13 0 0 1-14.23 2.22zm5.25-21.06c2.4-2.4 2.23-10.5-.37-17.44-2.48-6.62-9.9-14-14.05-14-1.11 0-1.19.45-.76 4.32a58.25 58.25 0 0 0 5 18.86c2.7 5.57 4.33 7.69 6.62 8.61s2.42.88 3.61-.31zm14.81-74.84c4.66-2.94 8-11.26 9.24-22.72 1.65-15.7-1.94-27.37-8.4-27.37-3.45 0-6.56 1.87-10.88 6.54-4.78 5.16-7.7 9.92-10.88 17.74-2.57 6.32-6.26 18.52-5.75 19 .17.17 1.65-.16 3.28-.73 3.51-1.24 6.46-1.34 8.54-.28a37.68 37.68 0 0 1 5.76 5.25c4.53 4.79 5.2 5 9.09 2.53zm481 95.51c-.6-1-2.14-12.69-1.72-13.11.6-.6 25.55-4.54 26.49-4.18s3.53 12.06 2.69 12.85c-.35.33-5.15 1.39-10.67 2.37-13.62 2.42-16.35 2.75-16.73 2.07zm84.13-.51c-7.21-2.35-14.51-8.91-18.72-16.83-2.52-4.73-6.67-16.87-7.4-21.66-.27-1.72-.65-3.7-.85-4.41-.33-1.17-.43-1.15-1.16.3-1.06 2.12-6.3 4.8-9.38 4.8a9.64 9.64 0 0 1-8.07-4.93c-1.52-2.94-1.06-8.28 1.09-12.76 2-4.21 8.34-10.67 12.48-12.77 3.76-1.91 4-2.21 4.45-6.57.22-1.9.87-7.82 1.46-13.15 3.85-34.72 16.15-61.79 33.03-72.59 8.88-5.68 20.66-7.3 29.13-4 7.26 2.84 13.45 9.88 17 19.4 4.31 11.38 3.38 33.72-2 48-2.07 5.52-7.65 13.66-11.67 17-5.88 4.92-9.94 6.54-17.24 6.87-11.29.52-18.18-2.72-24.1-11.34l-2.71-3.95-.45 3.73c-.25 2.05-.48 5.47-.52 7.61l-.06 3.87 4.65 1.26c12.81 3.47 23.14 11.64 28.46 22.52 4.76 9.71 6.39 18.7 5 27.58-1.59 10.27-5.7 16.67-13 20.28-3.83 1.88-5.39 2.24-10.47 2.41a29.73 29.73 0 0 1-8.89-.74zm10.78-22.92c2.08-6.1-1.29-17.65-6.73-23.09-2.7-2.7-7.47-5.63-9.15-5.63-2.12 0 1.29 17.06 4.78 24 2.81 5.56 5.33 8 8 7.72 1.86-.2 2.35-.65 3.14-3zm13.81-72.11c2-1.28 5.28-6.37 7-11.07 1.92-5.14 2.9-16.63 2-24.21-1.46-13.19-5.48-17.29-13.12-13.39-6.18 3.16-11.57 10.27-16.36 21.59-2.72 6.41-7.55 21.32-6.91 21.32.08 0 1.37-.62 2.86-1.38 5.22-2.66 10.49-1.29 14.3 3.71 4.21 5.54 5.86 6.1 10.14 3.43zM146.31 506.4c-7.59-7.94-13.62-15.77-15.91-20.65-2.85-6.08-2.36-6.74 5.85-7.76s26.07-2.13 27.18-1.7c.63.24.52 1.47-.44 4.94a39.91 39.91 0 0 0-1.28 5.7c0 .83 2.93 1.8 12.46 4.14 14.2 3.49 13.21 2.51 11.15 11.08-.84 3.46-1.61 5.26-2.34 5.4s-6.55-1.05-13.23-2.59-12.42-2.81-12.75-2.81-1.49 2.18-2.56 4.84-2.17 4.85-2.44 4.85-2.83-2.45-5.69-5.44zm103-68.08c-14.59-1.33-25.75-12.48-28.58-28.58-.92-5.23-1-7.44-.31-13.84 1-10 2.25-14.46 6.38-23.15 3-6.4 4.14-7.92 9.56-13.28 11.12-11 17.83-14.05 29.82-13.64 6.26.21 7.82.52 11.22 2.18 4.93 2.41 9.76 7.66 11.28 12.25 1.32 4 1.47 12.43.3 16.77a45.91 45.91 0 0 1-2.82 7l-2 4 3.95-.21 3.95-.21 1.86-5.53c5.95-17.69 17.14-30 31.64-34.9 8-2.68 19.47-1.63 25.8 2.37 9.44 6 12.26 20.42 6.41 32.84-3.32 7-12.58 14.54-21.64 17.55a87.94 87.94 0 0 1-11.07 2.15c-13.93 2-12.67 1.5-12.13 4.43.66 3.63 3.56 8.29 6.13 9.86 1.67 1 3.47 1.34 7.58 1.34 5.86 0 6.66-.32 12.4-5 3.74-3.06 6.66-4.1 9.79-3.49 6.17 1.19 10 9 7.1 14.61-1.47 2.85-8.06 8.77-11.89 10.7-8.78 4.42-20.48 5.46-29.47 2.63-12.05-3.78-20.63-13.92-22.88-27l-.81-4.75-8-.41c-15.93-.84-32.33-1.9-36.95-2.39l-4.73-.51.46 2.46c.82 4.45 3.41 9.92 5.39 11.39 1.45 1.07 3.25 1.5 7.14 1.7 6.44.32 10-.92 13.78-4.76 4.86-5 11.25-5.13 15.42-.37 4.38 5 3.31 11.13-2.92 16.83a41.64 41.64 0 0 1-13.86 7.91c-3.67 1.12-11.6 1.63-17.26 1.11zM324.14 381c7.3-1.61 10.82-3.45 13.39-7 5-6.85.15-9.87-8.44-5.29a30.87 30.87 0 0 0-11.58 11.66c-1.52 2.71-1.55 2.94-.35 2.43a70.85 70.85 0 0 1 6.98-1.8zM253 381c9.54-2.29 13.82-5.24 15.35-10.57.79-2.77-.24-3.95-3.43-3.93-3.4 0-7.36 1.95-11.46 5.59-3.1 2.75-7.32 8.38-7.32 9.76.01.76.27.73 6.86-.85zm255.63 57.35c-12.39-1.72-22.09-11.44-25.77-25.84a68.84 68.84 0 0 1-1.38-24.29c1.92-13.69 6.57-19.94 14.47-19.46 2.26.14 2.4 0 3.19-3.05 3.12-12 12-20 24.79-22.42 15.65-3 29.7.67 55 14.31l3 1.62 1.49-2.08c3.54-4.95 9.24-9.86 13.31-11.46 5.92-2.32 16.91-2.35 22.65-.06 8.42 3.36 16 13.12 18.16 23.45 1.17 5.51 1.31 18 .28 24.41C634.5 414.25 621 432.2 605 437.21c-7.87 2.46-17.15 1.89-23.8-1.47-5.08-2.56-11.84-9.79-14.63-15.64-3.5-7.34-4.3-12.37-4-25.24.23-9.72.5-12 1.83-15.57 2.74-7.3 2.86-6.85-2.28-8.9-2.51-1-4.64-1.83-4.73-1.83s-.18 5.37-.19 11.94c0 14.57-1.3 20.38-7.08 32.29-3.37 7-4.52 8.59-9.78 13.85-9.73 9.75-19.63 13.39-31.76 11.71zm10.47-21.6c3.26-1.36 7.26-5.07 9.79-9.08 2.22-3.52 6.17-12.75 5.67-13.25-.15-.15-1.64.35-3.32 1.11-6.69 3-16.7 1.29-23.94-4.17-2.08-1.57-3.94-2.69-4.13-2.5-.85.85-1 8.85-.29 13.54 1.59 10.26 5.17 15.3 10.86 15.3a16.53 16.53 0 0 0 5.36-.95zm81.85-.17c4.95-2.35 12.69-13.36 14.52-20.68.53-2.1.31-2.12-3.33-.27-2.41 1.24-3.76 1.42-8.45 1.17a26.54 26.54 0 0 1-16.52-6.46l-2.91-2.49-.54 3.33c-1.3 8 1.31 19.83 5.32 24.07 2.07 2.2 2.68 2.45 5.93 2.45a16.81 16.81 0 0 0 6-1.12zM536 378c-.53-5.66-2.16-9.69-4.85-11.95a6.45 6.45 0 0 0-10.58 3.63c-.8 4.29 0 5.65 3.7 6.17 4.58.65 8.84 2.63 10.23 4.75a5.63 5.63 0 0 0 1.5 1.8c.2 0 .18-2 0-4.39zm81-.65c-.77-9.62-7.34-15.72-12.81-11.89-1.93 1.35-3.28 6-2.29 7.88.68 1.27 1.69 1.7 8 3.42a12.34 12.34 0 0 1 4.81 2.85 12.44 12.44 0 0 0 2.31 2.09c.17 0 .16-2 0-4.35zm-230 59.87c-8.39-2.9-14.44-8.43-18.71-17.09-3.84-7.81-4.74-12.42-4.74-24.23 0-12.43 1.34-18.59 6.25-28.55 7.32-14.88 19.46-23.11 32.6-22.12a32 32 0 0 1 15.24 5.77l1.55 1.15v-8.44l-5.19-2.44c-18.79-8.69-29.44-22.69-29.51-38.81 0-9.11 3.83-17.24 10.53-22.16 4.86-3.57 8.69-4.69 15.06-4.38 6.92.33 10.94 2.26 16.54 7.92 7.4 7.49 12.48 21.09 13.8 36.9.45 5.34.56 5.64 2.27 6 5.22 1 7 1.89 9 4.14 1.81 2.06 2.14 3 2.14 6.05 0 5.91-3.46 9.67-9.68 10.53l-3.21.44-.94 9.1c-3.85 40.55-12.38 63.83-27.62 75.38-7.38 5.62-17.51 7.56-25.38 4.84zm11.63-20.45c6.82-2.85 13.43-17.46 17.39-38.42.6-3.19 1.1-5.91 1.1-6.06a13.14 13.14 0 0 0-3.73-.27c-3.2 0-4.32-.39-7.88-2.77-2.28-1.52-4.74-2.77-5.48-2.77-2.64 0-7.7 4-9.88 7.75-4.59 8-6.62 20.25-4.93 29.95 1 5.52 2.16 8.16 5.11 11.27 2.38 2.5 4.62 2.86 8.3 1.32zm20.56-97.31c0-2.3-2.41-11.38-3.87-14.57-1.81-4-5.45-8.32-7-8.32-2.81 0-3.12 7.79-.53 13s11.4 12.84 11.4 9.89zM147.55 436.94c-3.39-.72-5.07-2.17-6.68-5.77-4-8.89-3.33-40.27 1.49-71.26.77-5 1.54-9.67 1.72-10.49.28-1.34-.06-1.55-3.31-2-7.17-1-10.2-4.11-10.21-10.56 0-3.28.27-3.95 2.59-6.43 2.56-2.72 2.72-2.78 9.74-3.61L150 326l2.75-6.57c12.29-29.39 25.71-43 42.52-43 11.71-.05 20.4 8.63 20.4 20.38 0 17.36-16.42 35.25-41.52 45.24l-7.25 2.89-.79 3.1c-.43 1.7-1 4.26-1.27 5.67l-.49 2.58 4.06-3.12a70 70 0 0 1 8.48-5.44c3.83-2 5.2-2.35 10.35-2.54 5.57-.21 6.2-.08 10.43 2.08 6.93 3.54 11.28 10.28 13.32 20.64 1 5.22 1 30.86-.08 38.07-1.34 9.18-3.95 20.16-5.67 23.82q-2.79 5.92-8.62 5.94c-5.76 0-10.72-4.61-10.71-10a109.08 109.08 0 0 1 1.72-12.09c2.51-13.47 3.44-26.45 2.58-35.83-.39-4.23-1.06-8.36-1.49-9.17-3.54-6.61-17.09 9.38-23.83 28.12-2.9 8.07-3.94 13.72-4.55 24.52-.6 10.55-1 12-4.21 14.23a11.32 11.32 0 0 1-8.61 1.43zm35.61-123.74c5-4 8.68-8.19 10.13-11.59 3.66-8.57-4.91-3.5-11.71 6.94a76.38 76.38 0 0 0-4.51 7.6c-.74 1.74-.7 1.86.39 1.28.66-.36 3.23-2.26 5.7-4.23zm268 122.14a18.57 18.57 0 0 1-3.69-5c-1.53-3.11-1.61-4-1.56-17.12.08-19.31 2.66-35.46 12.06-75.44 6.25-26.54 7.12-32.17 6.58-42.34-.5-9.37 0-11.07 3.76-14.27 4.89-4.12 12.19-2.61 15.61 3.23 1.82 3.11 1.86 3.4 1.86 15.12 0 13.24.22 11.89-7.65 46.91-8.68 38.68-10.66 50.71-10.74 65.41 0 5.71.06 12.1.22 14.19.52 7-3.35 11.07-10.53 11.07-3.1 0-4.25-.33-5.92-1.74zM230.24.91" fill="#666"/></g></g></svg>