<?xml version="1.0" encoding="utf-8"?>
<!-- Generator: Adobe Illustrator 22.0.0, SVG Export Plug-In . SVG Version: 6.00 Build 0)  -->
<svg version="1.1" id="Layer_1" xmlns="http://www.w3.org/2000/svg" xmlns:xlink="http://www.w3.org/1999/xlink" x="0px" y="0px"
	 viewBox="0 0 1000 1000" style="enable-background:new 0 0 1000 1000;" xml:space="preserve">
<style type="text/css">
	.st0{fill:none;stroke:#192946;stroke-width:10;stroke-linecap:round;stroke-miterlimit:10;}
	.st1{fill:#FFFFFF;stroke:#192946;stroke-width:10;stroke-miterlimit:10;}
	.st2{fill:#192946;}
</style>
<title>cofounder</title>
<path class="st0" d="M673.9,435.7c14.7-96.3,99.5-161.5,183.3-152.5c66.8,7.1,125.2,60.5,142.8,133.2"/>
<path class="st0" d="M84.5,447.7c31.8-48.2,53.8-56.1,68.1-54.2c25.8,3.4,34.6,30.8,66,45.7c21.8,10.3,57.6,15.5,118.3-13.4"/>
<path class="st1" d="M749.7,255.2H478.3c-29.3,0-53.2-23.9-53.2-53.2V93.3c0-29.3,23.9-53.2,53.2-53.2h271.4
	c29.3,0,53.2,23.9,53.2,53.2v108.5C836,331.4,842.9,331.8,749.7,255.2z"/>
<path class="st0" d="M1.6,257.9c40.4-1,77.5-1.5,111-1.7c70.6-0.2,85.2,0.8,101.4,11.1c27.4,17.2,27,39.2,57.8,85
	c23.5,35,48.4,59.1,64.7,73.3"/>
<line class="st0" x1="504.3" y1="173.7" x2="734.4" y2="173.7"/>
<path class="st1" d="M293.6,280.1c0,32.3,19.7,58.4,17.6,64.1c-27,74.1-49.6,72.9,54.7,49.6c4.4-2.1,27.9,12.8,54,12.4
	c51.9-1,126.3-47.1,126.3-126.1c0-69.7-56.5-126.1-126.3-126.1S293.6,210.6,293.6,280.1z"/>
<path class="st0" d="M258.2,450c3.8,26.8,10.7,59.5,23.5,95.3c11.1,31,23.9,57.4,36,78.7"/>
<path class="st0" d="M265.3,624c17.4,0,34.8,0,52.2,0"/>
<path class="st0" d="M116,724.5c6.9,2.3,49.8,14.9,92.4-10.1c49.2-28.5,55.7-82.5,56.3-88.2"/>
<path class="st0" d="M696.1,456.9c-3.8,26.8-10.7,59.5-23.5,95.3c-11.1,31-23.9,57.4-36,78.7"/>
<path class="st0" d="M688.8,630.9c-17.4,0-34.8,0-52.2,0"/>
<path class="st0" d="M838.3,731.2c-6.9,2.3-49.8,14.9-92.4-10.1c-49.2-28.5-55.7-82.5-56.3-88.2"/>
<path class="st0" d="M736.9,400.5c22.6,23.9,53,51.5,92.6,77.3c23,14.9,44.8,26.4,64.7,35.6"/>
<g>
	<circle class="st2" cx="415.5" cy="323.9" r="6.7"/>
	<path class="st0" d="M416.3,301.7c-0.2-2.5-0.4-7.1,1.3-11.9c5.2-14.5,22.4-15.3,28.1-28.9c1.5-3.4,2.7-8.8,0.4-17.4
		c-3.1-11.7-13.2-20.3-24.7-20.7c-13.2-0.6-25.3,9.4-27.6,23.2"/>
</g>
<line class="st0" x1="504.3" y1="120.1" x2="734.4" y2="120.1"/>
<path class="st0" d="M87.5,452.2c-5-7.7-22.6-34.1-36.7-31c-15.3,3.6-22.2,41-13.4,69.5c9.2,30.2,34.3,45.7,42.5,50.1"/>
<path class="st0" d="M242,684.7c-9,0.8-25.3,0.8-42.9-6.9c-33.9-15.1-46.1-47.5-48.2-54"/>
<path class="st0" d="M81.8,720.9c21.8,0.8,56.3,5.4,89.8,27c90.9,58.4,85.2,182.2,85,189.1"/>
<path class="st0" d="M818.2,735.5c-20.3,0.8-52.2,5.4-83.4,27c-84.6,58.4-79.4,182.2-79,189.1"/>
<path class="st0" d="M891.4,518.1c5-7.7,23.2-34.1,37.9-31c15.7,3.6,22.8,41,13.8,69.5c-9.4,30.2-35.4,45.7-43.8,50.1"/>
<path class="st0" d="M712.8,692.1c8.2,0.8,22.8,0.8,38.7-6.9c30.8-15.1,41.5-47.5,43.6-54"/>
</svg>
