<svg id="Layer_1" data-name="Layer 1" xmlns="http://www.w3.org/2000/svg" viewBox="0 0 720 720"><defs><style>.cls-1{fill:#dcdbdb;}.cls-2{fill:none;}.cls-2,.cls-3{stroke:#231f20;stroke-miterlimit:10;stroke-width:6px;}.cls-3{fill:#fff;}</style></defs><title>Icons_NEST&amp;amp;LAUNCHLAB</title><rect class="cls-1" x="318.29" y="193.21" width="336.71" height="235.55" rx="18.01" ry="18.01"/><rect class="cls-2" x="14.96" y="553.94" width="673.41" height="31.53" rx="14.62" ry="14.62"/><rect class="cls-3" x="210.65" y="321.7" width="350.31" height="201.24" rx="17.29" ry="17.29"/><line class="cls-2" x1="347.34" y1="522.94" x2="347.34" y2="553.94"/><line class="cls-2" x1="430.53" y1="522.94" x2="430.53" y2="553.94"/><path class="cls-2" d="M48,553.94h87.7A44.19,44.19,0,0,0,48,553.94Z"/><path class="cls-2" d="M80.56,515.2L62.93,321.7l86.23-90.52,7.61,6.76L73.17,324.7,92.32,515.2H80.56Z"/><path class="cls-2" d="M163.12,325.51l108.14-88c-27.68-23.45-68.32-22.79-94.18.56C153.11,259.68,147,296.14,163.12,325.51Z"/><path class="cls-2" d="M165.4,247.45l-31.18-35.11a13.68,13.68,0,0,1,23-14.34l31.11,32.17c-3.59,2.2-7.39,4.75-11.32,7.68C172.64,241.11,168.79,244.35,165.4,247.45Z"/><polygon class="cls-2" points="587.43 464.28 674.86 464.28 674.86 488.12 595.21 488.12 587.43 488.12 587.43 464.28"/><path class="cls-2" d="M605.52,552.59L594,488.87l73.43-.61-12.14,64.33H605.52Z"/><path class="cls-3" d="M632.64,454.84a45.61,45.61,0,0,1,13.73-21.64c12.63-11,27.26-11.14,31-11.07-0.18,2.32-1.5,16.19-13.65,25.83C650.24,458.64,634.61,455.3,632.64,454.84Z"/><path class="cls-3" d="M624.89,454.55a42.51,42.51,0,0,0-6.16-23.27c-8.24-13.47-21.43-17.92-24.83-19a34.84,34.84,0,0,0,4.88,27C607.88,452.76,623,454.37,624.89,454.55Z"/></svg>