<svg id="Layer_1" data-name="Layer 1" xmlns="http://www.w3.org/2000/svg" viewBox="0 0 720 720"><defs><style>.cls-1,.cls-2,.cls-3,.cls-5,.cls-6{fill:none;stroke:#231f20;stroke-miterlimit:10;}.cls-1,.cls-5,.cls-6{stroke-width:7px;}.cls-2{stroke-width:15.92px;}.cls-3{stroke-width:16px;}.cls-4{fill:#231f20;}.cls-5,.cls-6{stroke-linecap:square;}.cls-5{stroke-dasharray:15.92 23.88;}</style></defs><title>Icons_NEST&amp;amp;LAUNCHLAB</title><circle class="cls-1" cx="166.13" cy="366.08" r="48.99"/><rect class="cls-1" x="286.53" y="173.22" width="174.2" height="105.33"/><rect class="cls-1" x="286.53" y="411.47" width="174.2" height="105.33"/><line class="cls-2" x1="524.93" y1="378.87" x2="524.93" y2="293.6"/><line class="cls-2" x1="556.33" y1="378.87" x2="556.33" y2="260.84"/><line class="cls-2" x1="588.43" y1="378.87" x2="588.43" y2="231.81"/><line class="cls-3" x1="369.52" y1="308.23" x2="369.52" y2="362.26"/><polygon class="cls-4" points="393.81 359 345.22 359 369.52 383.29 393.81 359"/><path class="cls-5" d="M157.37,291.22A78.28,78.28,0,0,1,170.91,256c27.64-38.8,82.21-34.61,86.26-34.23"/><path class="cls-6" d="M547.77,417.28c-3.79,17.37-17.6,54.24-67.13,62.14"/><polygon class="cls-4" points="557.98 420.36 536.99 417 549.16 408.19 557.98 420.36"/></svg>