<svg id="Layer_1" data-name="Layer 1" xmlns="http://www.w3.org/2000/svg" viewBox="0 0 720 720"><defs><style>.cls-1{fill:#010101;}.cls-2{fill:#fff;}.cls-3,.cls-4{fill:none;stroke:#010101;stroke-width:7px;}.cls-3{stroke-linecap:round;stroke-linejoin:round;}.cls-4{stroke-miterlimit:10;}</style></defs><title>Icons_NEST&amp;amp;LAUNCHLAB</title><path class="cls-1" d="M396.28,333.79c-0.32,0-4.78-2.65-7.17-4-1.29-.72-1.92.4-2.83,0.79s-2.07.85-3.12,1.23a47.84,47.84,0,0,1-6.16,1.79c-8.65,1.88-16.22,1.66-24.57-1.52-1-.38-2-0.79-2.93-1.22s0.54-.87,1-1.19l3.21-2.33c1.13-.82,1.77-2.34,3.69-1.65s3.76,1.31,5.7,1.8a29.31,29.31,0,0,0,11.11.55,29.75,29.75,0,0,0,5.73-1.26c0.71-.24,2.66-0.61,1.51-1.25l-5.26-2.91c-5.12-2.84-11.15-6.07-15-8.65-0.74-.5-2.06-1.73-3.69-1.18q-1.06.36-2.13,0.67c-1.54.46-3.09,0.86-4.65,1.23-5.76,1.35-11.34,2.66-17.43,2.28a30.16,30.16,0,0,1-11.67-3c-4.23-2.07-8.93-5.71-8.13-11.13,0.33-2.21,1.55-3.64,3-5.18a26.16,26.16,0,0,1,3-2.68c0.6-.47,1.22-0.91,1.85-1.34,0.37-.25,1.74-0.45,1-0.88-1-.57-4.48-1.11-2.51-2.2,0.47-.26,4.13-2.55,4.9-2.12l1.74,1c1.58,0.88,2.62,0,3.91-.56a45.61,45.61,0,0,1,16.81-3.24,37.6,37.6,0,0,1,9.28,1,40.8,40.8,0,0,1,4.47,1.34c0.39,0.14,1.1.38,0.58,0.75l-0.93.68c-0.65.47-5.4,4.5-6.64,4a24.21,24.21,0,0,0-9-1.65,28,28,0,0,0-9,1.17c-0.62.21-1.94,0.64-1,1.14l4.85,2.68,9.7,5.37,5.66,3.13c1.63,0.9,2.82.11,4.24-.34l5.79-1.85a48.85,48.85,0,0,1,10-2.07,33.17,33.17,0,0,1,18.33,3c11.65,5.47,12.21,13.77,1.78,21.19-0.56.4-1.76,1.28-1.31,1.57s0.67,0.37,1,.56l2,1.12c1.35,0.74,2.72,1.44,4,2.23,0.46,0.27-1.22,1.15-2,1.57A18.19,18.19,0,0,1,396.28,333.79Z"/><path class="cls-2" d="M329,296.55c-11.89,8.25,2.26,16,14.41,13.52q1.76-.36,3.48-0.85c1-.28,4-0.55,2.37-1.45L342.5,304Z"/><path class="cls-3" d="M414.33,341.2c38.93-21.55,24-53.54-14.6-66.46-28.18-9.42-67.4-8.43-94.05,6.33-38.93,21.55-24,53.54,14.6,66.46C348.45,356.95,387.67,356,414.33,341.2Z"/><path class="cls-4" d="M267.56,378.15c-6,5.81-17.52,6.65-25,5.24-9.32-1.75-20.14-8.38-11.49-16.77,6-5.81,17.52-6.65,25-5.24C265.4,363.13,276.21,369.76,267.56,378.15Z"/><path class="cls-4" d="M481.09,260c10.54-3.33,15.46-11.87,4.85-18.08-7.2-4.21-18-4.54-25.67-2.11-10.54,3.33-15.46,11.87-4.85,18.08C462.61,262.07,473.38,262.41,481.09,260Z"/><polygon class="cls-3" points="138.65 366.82 259.37 433.64 581.35 255.44 460.63 188.62 138.65 366.82"/><path class="cls-3" d="M168.86,383.55c16.69-9.24,16.69-24.21,0-33.44l-30.21,16.72Z"/><path class="cls-3" d="M289.58,416.92c-16.69-9.24-43.74-9.24-60.43,0l30.21,16.72Z"/><path class="cls-3" d="M551.14,238.71c-16.69,9.24-16.69,24.21,0,33.44l30.21-16.72Z"/><path class="cls-2" d="M387.23,323.14c12.75-8.85-2.91-17.71-16-14.87-1.24.27-2.45,0.6-3.65,1-1,.33-4,0.78-2.34,1.73l7.32,4.05Z"/><line class="cls-3" x1="259.37" y1="500.49" x2="259.37" y2="478.21"/><line class="cls-3" x1="259.37" y1="500.49" x2="621.64" y2="299.99"/><line class="cls-3" x1="98.36" y1="433.66" x2="259.37" y2="522.77"/><line class="cls-3" x1="259.37" y1="522.77" x2="259.37" y2="500.49"/><line class="cls-3" x1="259.37" y1="522.77" x2="621.64" y2="322.27"/><line class="cls-3" x1="98.36" y1="411.38" x2="259.37" y2="500.49"/><line class="cls-3" x1="259.37" y1="545.05" x2="259.37" y2="522.77"/><line class="cls-3" x1="259.37" y1="545.05" x2="621.64" y2="344.55"/><line class="cls-3" x1="98.36" y1="478.21" x2="259.37" y2="567.33"/><line class="cls-3" x1="259.37" y1="567.33" x2="259.37" y2="545.05"/><line class="cls-3" x1="259.37" y1="567.33" x2="621.64" y2="366.82"/><line class="cls-3" x1="460.63" y1="166.33" x2="98.36" y2="366.82"/><line class="cls-3" x1="621.64" y1="255.44" x2="460.63" y2="166.33"/><line class="cls-3" x1="259.37" y1="455.94" x2="621.64" y2="255.44"/><line class="cls-3" x1="259.37" y1="478.21" x2="621.64" y2="277.71"/><line class="cls-3" x1="98.36" y1="366.82" x2="259.37" y2="455.94"/><line class="cls-3" x1="259.37" y1="478.21" x2="259.37" y2="455.94"/><line class="cls-3" x1="98.36" y1="389.1" x2="259.37" y2="478.21"/><line class="cls-3" x1="98.36" y1="455.94" x2="259.37" y2="545.05"/><path class="cls-3" d="M430.42,205.34l30.21-16.72,30.21,16.72C474.16,214.58,447.1,214.58,430.42,205.34Z"/><line class="cls-3" x1="98.36" y1="366.82" x2="98.36" y2="478.21"/><line class="cls-3" x1="621.64" y1="255.44" x2="621.64" y2="366.82"/></svg>