<svg id="Layer_1" data-name="Layer 1" xmlns="http://www.w3.org/2000/svg" viewBox="0 0 720 720"><defs><style>.cls-1{fill:none;stroke:#010101;stroke-miterlimit:10;stroke-width:7px;}.cls-2{fill:#010101;}</style></defs><title>Icons_NEST&amp;amp;LAUNCHLAB</title><path class="cls-1" d="M384.45,258.05L384.7,46.52a66.17,66.17,0,0,1,28.83,14.41c25.89,22.56,23.25,57.91,22.84,62.46a250.71,250.71,0,0,1,170.84,2.4c-0.54-4.92-3.31-34.55,18-57.65a70.31,70.31,0,0,1,32.44-19.68V260.39c-0.06,3.83-.18,9.5-0.42,16.35-3,85.68-6,168.53-50,234.3-7.82,11.66-33,48.27-80.11,73-93.07,48.75-191.35,8.84-209.31,1.19-11.49,53.41-58.87,84.32-98.25,76.06-26.69-5.59-48.47-28.92-57.81-58.43,0,0-88.47,121.78-116.05,41.11q64.42-68.63,129.52-141.47Q285.64,378.76,384.45,258.05Z"/><path class="cls-1" d="M226.68,448.1c6.53,10.09,52.91,79.29,138.11,88.18,75.45,7.87,157.52-34.06,185.2-106.77,2.11-5.54,36.35-99.92-25.75-154.5-35.86-31.52-90.47-38-139.79-17"/><line class="cls-1" x1="521.5" y1="272.4" x2="521.5" y2="202.68"/><circle class="cls-2" cx="456.23" cy="210.88" r="10.41"/><circle class="cls-2" cx="599.08" cy="210.88" r="10.41"/><line class="cls-1" x1="563.05" y1="345.01" x2="651.1" y2="345.01"/><path class="cls-1" d="M521.5,202.68S460.89,139,384.45,180.92"/><path class="cls-1" d="M521.5,202.68s59.72-63.7,136.16-21.76"/></svg>