<svg id="Layer_1" data-name="Layer 1" xmlns="http://www.w3.org/2000/svg" viewBox="0 0 720 720"><defs><style>.cls-1{fill:none;}.cls-1,.cls-3{stroke:#000;stroke-miterlimit:10;stroke-width:7px;}.cls-2{fill:#e5e5e5;opacity:0.76;}.cls-3{fill:#fff;}</style></defs><title>Icons_NEST&amp;amp;LAUNCHLAB</title><rect class="cls-1" x="325.93" y="125.73" width="335.09" height="335.09" rx="12" ry="12"/><rect class="cls-2" x="329.66" y="168.56" width="63.01" height="289.19" rx="11.58" ry="11.58"/><path class="cls-1" d="M387.75,266.78a20.83,20.83,0,0,0,0,27.46,16.68,16.68,0,0,0,25,0c47.76-52.17,125.33-52,172.9.3a16.54,16.54,0,0,0,25,0,20.83,20.83,0,0,0,0-27.46c-61.32-67.53-161.37-67.71-222.93-.39h0Zm0,0"/><path class="cls-1" d="M435.46,319.26a20.83,20.83,0,0,0,0,27.46,16.68,16.68,0,0,0,25,0c21.31-23.35,56-23.29,77.23.14a16.53,16.53,0,0,0,25,0,20.73,20.73,0,0,0,0-27.38c-35-38.62-92.09-38.72-127.26-.3h0Zm0,0"/><circle class="cls-1" cx="501" cy="381.71" r="24" transform="translate(118.41 882.04) rotate(-89.9)"/><rect class="cls-3" x="24.91" y="200.94" width="335.09" height="335.09" rx="12" ry="12"/><path class="cls-1" d="M127.93,412.48l-21.36,4.72a35.12,35.12,0,0,0-12.17,9.89,32.15,32.15,0,0,0-6.8,21l14.69-12.35,11.49-2.51,11.48,12.18-2.77,10.13-14.31,14.11a31.81,31.81,0,0,0,21.66-5,34.4,34.4,0,0,0,9.89-10l7-23.14Z"/><path class="cls-1" d="M240.63,308.1l7.59-23.62a38.58,38.58,0,0,1,15.42-11.05,35.39,35.39,0,0,1,10.25-2.27l-9.34,14.12-3.91,9.8L273,308.42l9.85-1.6,15.59-10.12a31.58,31.58,0,0,1-5.28,15.83,33.41,33.41,0,0,1-11.8,10.79l-22,4.26Z"/><line class="cls-3" x1="241.18" y1="306.83" x2="126.47" y2="413.41"/><line class="cls-3" x1="258.75" y1="326.78" x2="145.08" y2="432.39"/><path class="cls-1" d="M198.72,399.35l8.59,8.4-0.79,10.76L265,475.79a52.68,52.68,0,0,0,30-30.63l-58.29-56.77-11.32.17-8.73-8Z"/><path class="cls-3" d="M203.36,394.38L116.63,308.9,97.95,300,88.4,284.85l11.78-12,15.22,8L125,300.4l86.41,85.76Z"/></svg>