<svg id="Layer_1" data-name="Layer 1" xmlns="http://www.w3.org/2000/svg" viewBox="0 0 720 720"><defs><style>.cls-1{fill:none;stroke:#231f20;stroke-linecap:round;stroke-linejoin:round;stroke-width:7px;}</style></defs><title>Icons_NEST&amp;amp;LAUNCHLAB</title><polygon class="cls-1" points="360 83.14 650.05 179.82 360 276.51 69.95 179.82 360 83.14"/><polyline class="cls-1" points="69.95 179.82 69.95 566.55 360 663.24 650.05 566.55 650.05 179.82"/><line class="cls-1" x1="360" y1="276.51" x2="360" y2="663.24"/><line class="cls-1" x1="547.93" y1="482.12" x2="571.49" y2="489.98"/><line class="cls-1" x1="408.82" y1="435.76" x2="445.97" y2="448.14"/><line class="cls-1" x1="493.08" y1="328.83" x2="408.82" y2="356.91"/><line class="cls-1" x1="609.13" y1="290.14" x2="533.28" y2="315.43"/><line class="cls-1" x1="493.08" y1="349.7" x2="408.82" y2="377.78"/><path class="cls-1" d="M533.28,312.67V350.3a9.34,9.34,0,0,1-6.39,8.87l-21.51,7.17a9.34,9.34,0,0,1-12.3-8.87V319.84a9.34,9.34,0,0,1,6.39-8.87L521,303.8A9.34,9.34,0,0,1,533.28,312.67Z"/><line class="cls-1" x1="609.13" y1="311.01" x2="533.28" y2="336.3"/><path class="cls-1" d="M609.13,477.43l-56.54,18.85s-8.54,45.05-10.34,45.65L433.71,578.11a18.91,18.91,0,0,1-24.89-17.94V333A18.91,18.91,0,0,1,421.75,315l162.5-54.17a18.91,18.91,0,0,1,24.89,17.94V477.43Z"/><path class="cls-1" d="M518.58,361.94v34.34a4.8,4.8,0,0,1-2.59,4.26h0a4.8,4.8,0,0,1-7-4.26V365.14"/><polygon class="cls-1" points="496.95 421.53 547.93 438.52 496.95 455.52 445.97 438.52 496.95 421.53"/><polyline class="cls-1" points="445.97 438.52 445.97 506.5 496.95 523.49 547.93 506.5 547.93 438.52"/><line class="cls-1" x1="496.95" y1="455.52" x2="496.95" y2="523.49"/><polyline class="cls-1" points="520.69 447.6 516.67 467.19 532 461.52 516.67 497.19 514.5 476.36 504.33 476.19 508.98 451.51"/><ellipse class="cls-1" cx="472.28" cy="596.08" rx="13.69" ry="10.36" transform="translate(-151.27 1031.44) rotate(-86.53)"/><polygon class="cls-1" points="566.55 536.46 566.55 511.19 606.63 498.32 606.63 523.11 566.55 536.46"/><ellipse class="cls-1" cx="442.96" cy="605.21" rx="13.69" ry="10.36" transform="translate(-187.93 1010.74) rotate(-86.53)"/><ellipse class="cls-1" cx="413.73" cy="612.97" rx="13.69" ry="10.36" transform="translate(-223.15 988.86) rotate(-86.53)"/></svg>