<?xml version="1.0" standalone="no"?>
<!DOCTYPE svg PUBLIC "-//W3C//DTD SVG 20010904//EN"
 "http://www.w3.org/TR/2001/REC-SVG-20010904/DTD/svg10.dtd">
<svg version="1.0" xmlns="http://www.w3.org/2000/svg"
 width="1000.000000pt" height="1000.000000pt" viewBox="0 0 1000.000000 1000.000000"
 preserveAspectRatio="xMidYMid meet">
<metadata>
Created by potrace 1.15, written by Peter Selinger 2001-2017
</metadata>
<g transform="translate(0.000000,1000.000000) scale(0.100000,-0.100000)"
fill="#000000" stroke="none">
<path d="M4953 8583 c-50 -34 -78 -69 -127 -152 -76 -130 -119 -254 -184 -521
-81 -334 -106 -462 -131 -680 -5 -47 -21 -175 -35 -285 -35 -284 -44 -398 -56
-665 -6 -129 -15 -293 -20 -365 -6 -71 -10 -213 -10 -315 0 -185 31 -671 49
-765 6 -27 13 -75 17 -105 12 -104 89 -492 128 -648 27 -106 105 -379 151
-522 75 -237 181 -637 247 -933 6 -26 13 -47 17 -47 3 0 19 55 35 123 100 419
209 813 308 1112 16 51 106 404 127 505 53 245 109 635 126 873 9 130 6 719
-5 897 -5 85 -14 238 -20 340 -15 239 -64 696 -104 960 -42 279 -148 707 -219
890 -24 61 -103 204 -137 247 -21 27 -95 83 -110 83 -4 0 -25 -12 -47 -27z"/>
<path d="M4023 6931 c-160 -116 -258 -467 -232 -836 14 -204 68 -484 124 -650
43 -124 109 -295 114 -295 15 0 87 356 116 570 56 417 60 1031 8 1161 -15 39
-55 79 -78 79 -7 0 -30 -13 -52 -29z"/>
<path d="M5892 6944 c-34 -23 -50 -63 -68 -166 -32 -181 -8 -833 42 -1153 28
-185 87 -449 104 -468 13 -14 118 290 164 473 56 223 70 340 70 580 1 202 -2
235 -23 320 -51 212 -115 337 -205 402 -45 32 -53 34 -84 12z"/>
<path d="M1843 1852 c-37 -11 -61 -38 -73 -82 -17 -62 -9 -546 9 -582 28 -55
48 -58 405 -58 l326 0 0 45 0 45 -315 0 -315 0 0 275 0 275 315 0 315 0 0 45
0 45 -322 -1 c-178 -1 -333 -4 -345 -7z"/>
<path d="M2850 1495 l0 -365 355 0 355 0 0 45 0 45 -300 0 -301 0 3 123 3 122
178 3 177 2 0 45 0 45 -180 0 -180 0 0 105 0 105 295 0 295 0 0 45 0 45 -350
0 -350 0 0 -365z"/>
<path d="M3860 1495 l0 -365 335 0 335 0 0 45 0 45 -277 2 -278 3 -3 318 -2
317 -55 0 -55 0 0 -365z"/>
<path d="M5066 1838 c-7 -13 -89 -162 -181 -333 -92 -170 -176 -325 -187 -342
l-20 -33 59 0 59 0 44 90 44 90 256 -2 255 -3 45 -87 45 -88 63 0 64 0 -30 53
c-16 28 -107 193 -202 365 l-172 312 -64 0 c-55 0 -65 -3 -78 -22z m174 -239
c52 -100 97 -185 98 -190 2 -5 -82 -9 -198 -9 -116 0 -200 4 -198 9 9 26 194
371 198 371 3 0 48 -82 100 -181z"/>
<path d="M5860 1495 l0 -365 60 0 60 0 0 145 0 145 110 0 110 0 150 -145 149
-145 86 0 87 0 -159 136 c-87 74 -159 139 -161 145 -2 5 34 9 85 9 155 0 178
32 171 245 -4 134 -16 165 -70 184 -20 7 -150 11 -354 11 l-324 0 0 -365z
m612 258 c15 -13 18 -32 18 -113 0 -142 14 -135 -274 -135 l-231 0 -3 133 -3
132 237 0 c207 0 240 -2 256 -17z"/>
<path d="M6960 1495 l0 -365 55 0 55 0 0 365 0 365 -55 0 -55 0 0 -365z"/>
<path d="M7657 1743 c-163 -298 -327 -602 -327 -607 0 -3 24 -6 53 -6 l52 0
48 90 48 90 252 0 252 0 45 -88 45 -87 64 -3 c49 -2 62 0 58 10 -3 7 -93 171
-200 363 l-194 350 -66 3 -65 3 -65 -118z m227 -147 c53 -102 96 -187 96 -190
0 -3 -90 -6 -200 -6 l-201 0 98 190 c54 104 101 190 105 190 3 0 50 -83 102
-184z"/>
</g>
</svg>
