<?xml version="1.0" encoding="utf-8"?>
<!-- Generator: Adobe Illustrator 22.0.0, SVG Export Plug-In . SVG Version: 6.00 Build 0)  -->
<svg version="1.1" id="Layer_1" xmlns="http://www.w3.org/2000/svg" xmlns:xlink="http://www.w3.org/1999/xlink" x="0px" y="0px"
	 viewBox="0 0 1080 1080" style="enable-background:new 0 0 1080 1080;" xml:space="preserve">
<style type="text/css">
	.st0{fill:#59C8DE;stroke:#59C8DE;stroke-width:6.0088;stroke-miterlimit:10;}
	.st1{fill:#FFFFFF;stroke:#FFFFFF;stroke-width:6.0088;stroke-miterlimit:10;}
	.st2{fill:#FFFFFF;}
</style>
<g>
	<circle class="st0" cx="540" cy="540" r="474.1"/>
	<g>
		<path class="st1" d="M398.1,584.8"/>
	</g>
	<g>
		<g>
			<path class="st1" d="M209.8,547.7c-12.3-0.2-21.6-3.6-27.9-10.2c-5-5.3-7.4-11.5-7.1-18.5c0.4-8.7,3.9-16,10.5-22
				c6.6-6,14.4-9,23.6-9c8.1,0,15.3,1.7,21.7,5.1c7.6,4,12.5,9.8,14.5,17.5c0.3,1.2,0.2,2.4-0.5,3.5c-0.7,1.1-1.6,1.8-2.8,2.1
				c-1.2,0.4-2.4,0.2-3.5-0.5c-1.1-0.6-1.8-1.5-2.1-2.8c-1.4-5.3-5-9.4-10.8-12.2c-4.8-2.4-10.3-3.5-16.5-3.5
				c-6.7,0-12.5,2.2-17.3,6.5c-4.8,4.3-7.4,9.6-7.7,15.9c-0.2,4.4,1.3,8.3,4.6,11.8c4.5,4.8,11.6,7.2,21.3,7.4
				c1.3,0.1,2.4,0.5,3.2,1.4c0.9,0.9,1.3,2,1.3,3.3c-0.1,1.2-0.5,2.3-1.4,3.2C212.2,547.2,211.1,547.7,209.8,547.7L209.8,547.7z
				 M189.5,593.3c-7.6-4.1-12.5-9.9-14.5-17.5c-0.3-1.2-0.2-2.3,0.5-3.5c0.7-1.1,1.6-1.8,2.8-2.1c1.2-0.3,2.3-0.2,3.5,0.5
				c1.1,0.7,1.8,1.6,2.1,2.8c1.4,5.3,5,9.4,10.8,12.2c4.8,2.3,10.3,3.5,16.5,3.5c6.7,0,12.5-2.2,17.3-6.5c4.8-4.3,7.4-9.6,7.7-15.8
				c0.2-4.5-1.3-8.4-4.6-11.9c-4.5-4.8-11.6-7.2-21.3-7.4c-1.3,0-2.4-0.5-3.2-1.4c-0.9-0.9-1.3-2-1.3-3.2c0.1-1.3,0.5-2.4,1.5-3.2
				c0.9-0.9,1.9-1.3,3.2-1.3c12.3,0.2,21.6,3.6,27.9,10.3c5,5.3,7.4,11.4,7,18.5c-0.4,8.7-3.8,16-10.5,22c-6.6,6-14.4,9-23.6,9
				C203.1,598.3,195.9,596.6,189.5,593.3z"/>
		</g>
	</g>
	<g>
		<g>
			<path class="st1" d="M328.4,497.1H298c-1.3,0-2.4-0.4-3.3-1.3c-0.9-0.9-1.3-1.9-1.3-3.2c0-1.3,0.4-2.4,1.3-3.2
				c0.9-0.9,2-1.4,3.3-1.4h70c1.3,0,2.4,0.5,3.2,1.4c0.9,0.9,1.4,2,1.4,3.2c0,1.3-0.5,2.4-1.4,3.2c-0.9,0.9-2,1.3-3.2,1.3h-30.4
				v96.6c0,1.3-0.4,2.4-1.3,3.3c-0.9,0.9-2,1.3-3.3,1.3c-1.2,0-2.3-0.4-3.2-1.3c-0.9-0.9-1.3-2-1.3-3.3V497.1z"/>
		</g>
	</g>
	<g>
		<g>
			<path class="st1" d="M563.4,598.3c-1.3,0-2.4-0.5-3.2-1.4c-0.9-0.9-1.4-1.9-1.4-3.2V492.4c0-1.3,0.5-2.4,1.4-3.2
				c0.9-1,2-1.4,3.2-1.4l61.1,0.2c1.3,0,2.4,0.5,3.2,1.4c0.9,0.9,1.4,2,1.4,3.2c0,1.3-0.5,2.4-1.4,3.3c-0.9,0.9-2,1.3-3.2,1.3
				L568,497v41.4h42.3c1.3,0,2.4,0.5,3.2,1.4c0.9,0.9,1.4,1.9,1.4,3.2c0,1.3-0.5,2.4-1.4,3.2c-0.9,0.9-2,1.4-3.2,1.4H568v41.4h56.5
				c1.3,0,2.4,0.5,3.2,1.4c0.9,0.9,1.4,2,1.4,3.2c0,1.3-0.5,2.4-1.4,3.2c-0.9,0.9-2,1.4-3.2,1.4H563.4z"/>
		</g>
	</g>
	<g>
		<g>
			<g>
				<path class="st2" d="M411.8,597.9c-1.2-0.5-2-1.3-2.5-2.5c-0.5-1.2-0.5-2.4,0-3.5l10.7-25.8v-0.1l31.2-75.2
					c0.1-0.3,0.2-0.5,0.4-0.8l0.3-0.3c0.2-0.2,0.3-0.3,0.3-0.4c0,0,0.2-0.2,0.4-0.3c0.3-0.2,0.4-0.3,0.3-0.2
					c0.5-0.4,1.1-0.6,1.6-0.7h0.4c0.3-0.1,0.5-0.1,0.5-0.1c0.1,0,0.2,0,0.5,0.1c0.3,0,0.4,0,0.4,0c0.6,0.1,1.2,0.3,1.7,0.7l0.3,0.2
					c0.2,0.2,0.3,0.3,0.4,0.3c0.1,0.1,0.2,0.2,0.3,0.4c0.2,0.3,0.3,0.4,0.3,0.3c0.2,0.3,0.3,0.6,0.4,0.8l31.2,75.2v0.1l10.7,25.8
					c0.5,1.2,0.5,2.4,0,3.5c-0.5,1.2-1.3,2-2.5,2.5c-0.6,0.3-1.2,0.4-1.8,0.4c-2.1,0-3.5-0.9-4.2-2.8l-9.5-22.9h-56.2l-9.5,22.9
					c-0.8,1.9-2.2,2.8-4.2,2.8c-0.6,0-0.9,0-0.9,0S412.3,598.2,411.8,597.9z M479.7,563.3l-24.3-58.6l-24.3,58.6H479.7z"/>
				<path class="st2" d="M497.3,601.3c-3.3,0-5.8-1.7-7-4.7l-8.8-21.1h-52.2l-8.8,21.1c-1.2,3-3.7,4.7-7,4.7H412l-1.4-0.6
					c-1.9-0.8-3.3-2.2-4.1-4.1c-0.8-1.8-0.8-3.9,0-5.8l41.9-101c0.1-0.3,0.3-0.7,0.5-1l0.2-0.4l0.5-0.5c0.2-0.3,0.4-0.4,0.4-0.5
					c0.1-0.1,0.3-0.3,0.7-0.6c0.1-0.1,0.3-0.2,0.4-0.3l0,0c0.9-0.6,1.8-1,2.8-1.2l0.7,0c0.4-0.1,0.7-0.1,0.8-0.1
					c0.2,0,0.5,0,0.7,0.1h0.1c0.7,0.1,1.7,0.4,2.8,1c1.5,0.8,2.4,2,2.9,2.6c0.1,0.2,0.2,0.4,0.3,0.6c0.1,0.2,0.2,0.3,0.2,0.5
					l31.4,75.7v0.1l10.5,25.2c0.8,1.9,0.8,3.9,0,5.9c-0.7,1.8-2.1,3.3-4,4C499.3,601.1,498.3,601.3,497.3,601.3z M425.3,569.5h60.2
					l10.3,24.8c0.3,0.8,0.6,1,1.5,1c0.2,0,0.3,0,0.5-0.1l0.2-0.1c0.4-0.2,0.6-0.4,0.8-0.8c0.2-0.5,0.2-0.8,0-1.3L456.9,492
					c0-0.1-0.1-0.2-0.1-0.2c-0.1-0.1-0.1-0.1-0.2-0.2l0,0c-0.1-0.1-0.2-0.2-0.3-0.3l-0.1-0.1c0,0-0.1-0.1-0.2-0.1h-1.1
					c-0.1,0-0.2,0.1-0.3,0.1l0,0l-0.5,0.5c0,0.1-0.1,0.1-0.1,0.2l-31,74.7l-0.2,0.6l-10.7,25.8c-0.2,0.5-0.2,0.8,0,1.2
					c0.2,0.5,0.4,0.7,0.8,0.9l0.4,0.2h0.3c0.8,0,1.1-0.2,1.4-1L425.3,569.5z M484.2,566.3h-57.6l28.8-69.5L484.2,566.3z
					 M435.6,560.3h39.6l-19.8-47.8L435.6,560.3z"/>
			</g>
		</g>
	</g>
	<g>
		<g>
			<path class="st1" d="M770.9,487.8c1.9,0,3.3,0.8,4.2,2.5c0.8,1.7,0.6,3.4-0.5,4.9L701,589.1h67.8c1.2,0,2.3,0.5,3.2,1.4
				c0.9,0.9,1.3,2,1.3,3.2c0,1.3-0.4,2.4-1.3,3.2c-0.9,0.9-2,1.4-3.2,1.4h-77.3c-2,0-3.3-0.9-4.2-2.6c-0.9-1.7-0.7-3.3,0.5-4.8
				l73.5-93.9h-67.8c-1.3,0-2.4-0.4-3.2-1.3c-0.9-0.9-1.4-2-1.4-3.2c0-1.3,0.5-2.4,1.4-3.3c0.9-0.9,1.9-1.3,3.2-1.3H770.9z"/>
		</g>
	</g>
	<g>
		<g>
			<path class="st1" d="M912,488.9c1,0.8,1.6,1.8,1.8,3.1c0.1,1.3-0.2,2.4-1,3.4l-37.9,47.5v50.9c0,1.3-0.4,2.4-1.3,3.2
				c-0.9,0.9-2,1.4-3.3,1.4c-1.2,0-2.3-0.5-3.2-1.4c-0.9-0.9-1.3-1.9-1.3-3.2v-50.9l-37.9-47.5c-0.8-1-1.1-2.1-1-3.4
				c0.2-1.2,0.7-2.3,1.8-3.1c1-0.8,2.1-1.1,3.3-0.9c1.3,0.1,2.3,0.7,3.2,1.7l35.3,44.2l35.3-44.2c0.8-1,1.8-1.6,3.1-1.7
				C909.9,487.8,911,488.1,912,488.9z"/>
		</g>
	</g>
</g>
</svg>
